<?xml version="1.0" encoding="UTF-8"?>
<svg id="Layer_1" xmlns="http://www.w3.org/2000/svg" version="1.1" xmlns:xlink="http://www.w3.org/1999/xlink" viewBox="0 0 200 74.12">
  <!-- Generator: Adobe Illustrator 29.5.1, SVG Export Plug-In . SVG Version: 2.1.0 Build 141)  -->
  <defs>
    <style>
      .st0 {
        fill: url(#linear-gradient1);
      }

      .st1 {
        fill: #f4f4f4;
      }

      .st2 {
        fill: url(#linear-gradient);
      }
    </style>
    <linearGradient id="linear-gradient" x1="6.49" y1="37.26" x2="76.97" y2="37.26" gradientUnits="userSpaceOnUse">
      <stop offset="0" stop-color="#3b3f9f"/>
      <stop offset="1" stop-color="#3b3f63"/>
    </linearGradient>
    <linearGradient id="linear-gradient1" x1="33.34" y1="36.94" x2="55.66" y2="36.94" xlink:href="#linear-gradient"/>
  </defs>
  <g>
    <circle class="st1" cx="41.73" cy="37.26" r="35.24"/>
    <path class="st2" d="M41.73,3.02c18.88,0,34.24,15.36,34.24,34.24s-15.36,34.24-34.24,34.24S7.49,56.14,7.49,37.26,22.85,3.02,41.73,3.02M41.73,2.02C22.27,2.02,6.49,17.8,6.49,37.26s15.78,35.24,35.24,35.24,35.24-15.78,35.24-35.24S61.2,2.02,41.73,2.02h0Z"/>
  </g>
  <g>
    <path class="st1" d="M99.99,13.69v4.39h-3.85v12.21h-5.57v-12.21h-3.85v-4.39h13.27Z"/>
    <path class="st1" d="M120.51,13.46v16.83h-5.58v-6.6l-3.98,2.96-3.98-2.96v6.6h-5.57V13.46l9.55,6.78,9.56-6.78Z"/>
    <path class="st1" d="M130.33,13.69c2.53,0,4.57.77,6.11,2.3s2.31,3.53,2.31,6.01-.77,4.47-2.31,6-3.57,2.29-6.11,2.29h-7.93V13.69h7.93ZM129.62,25.9c1,0,1.85-.36,2.53-1.07.68-.71,1.02-1.66,1.02-2.84s-.34-2.19-1.01-2.88c-.68-.69-1.52-1.04-2.54-1.04h-1.66v7.82h1.66Z"/>
    <path class="st1" d="M152.12,21.57c.66.19,1.26.65,1.8,1.38s.8,1.62.8,2.68c0,.94-.24,1.77-.71,2.48-.47.71-1.1,1.25-1.89,1.62-.79.37-1.67.55-2.64.55h-9.34V13.69h8.75c1.52,0,2.77.39,3.75,1.16.98.78,1.48,1.86,1.48,3.25,0,1-.19,1.79-.57,2.36-.38.57-.86.94-1.44,1.11ZM145.72,17.96v1.96h1.99c.25,0,.45-.09.61-.27.16-.18.24-.42.24-.71s-.08-.53-.24-.71c-.16-.18-.37-.27-.61-.27h-1.99ZM148.3,26.01c.25,0,.45-.09.61-.27.16-.18.24-.42.24-.71s-.08-.53-.24-.71c-.16-.18-.37-.27-.61-.27h-2.58v1.96h2.58Z"/>
    <path class="st1" d="M96.17,56.08c1,0,1.91-.23,2.75-.69.84-.46,1.51-1.1,2.01-1.91l2.71,1.31c-.72,1.28-1.75,2.29-3.07,3.02-1.32.73-2.79,1.1-4.4,1.1s-3.08-.36-4.4-1.08-2.36-1.73-3.12-3.03c-.76-1.3-1.14-2.75-1.14-4.36s.38-3.07,1.14-4.36c.76-1.3,1.8-2.3,3.12-3.03,1.32-.72,2.79-1.08,4.4-1.08s3.08.37,4.4,1.11c1.32.74,2.34,1.74,3.07,3.01l-2.71,1.31c-.5-.8-1.17-1.44-2.01-1.9-.84-.46-1.75-.69-2.75-.69-1.57,0-2.91.54-4,1.61s-1.64,2.42-1.64,4.02.55,2.95,1.64,4.03,2.42,1.62,4,1.62Z"/>
    <path class="st1" d="M106.29,40.95h2.91v17.78h-2.91v-17.78Z"/>
    <path class="st1" d="M113.65,43.83c-.49,0-.9-.17-1.24-.51-.34-.34-.51-.76-.51-1.24s.17-.88.51-1.22c.34-.34.76-.51,1.24-.51s.89.17,1.23.51c.34.34.51.75.51,1.22s-.17.89-.51,1.24c-.34.35-.75.52-1.23.52ZM112.19,45.7h2.91v13.03h-2.91v-13.03Z"/>
    <path class="st1" d="M124.29,45.5c1.02,0,1.96.18,2.84.56.88.37,1.62.88,2.24,1.54.62.66,1.09,1.47,1.41,2.43.32.96.46,2.02.39,3.16h-10.89c.2,1.02.67,1.84,1.41,2.47.74.63,1.6.94,2.59.94.85,0,1.6-.22,2.26-.67.66-.44,1.16-1.05,1.51-1.83l2.48,1.19c-.57,1.12-1.42,2-2.55,2.65s-2.36.97-3.7.97c-.94,0-1.84-.16-2.69-.48s-1.59-.77-2.23-1.34-1.14-1.28-1.52-2.12-.56-1.76-.56-2.76.19-1.92.56-2.76.88-1.55,1.52-2.13c.64-.57,1.38-1.02,2.23-1.34s1.74-.48,2.69-.48ZM124.29,47.83c-1.03,0-1.91.31-2.64.94-.73.62-1.18,1.45-1.38,2.48h8.04c-.19-1.03-.65-1.86-1.38-2.48-.73-.62-1.61-.93-2.65-.93Z"/>
    <path class="st1" d="M143.16,58.73v-6.52c0-1.39-.24-2.44-.72-3.16s-1.26-1.08-2.34-1.08c-1.17,0-2.06.39-2.7,1.16s-.95,1.8-.95,3.08v6.52h-2.89v-13.03h2.77l.13,2.06c.86-1.5,2.4-2.26,4.59-2.26.91,0,1.69.15,2.34.46s1.17.76,1.56,1.35c.39.6.67,1.3.84,2.1.18.8.27,1.74.27,2.8v6.52h-2.89Z"/>
    <path class="st1" d="M149.47,42.74h2.88v2.95h3.36v2.27h-3.36v6.48c0,.59.11,1.05.32,1.36.21.31.55.5,1.02.55.57.12,1.24.1,2.01-.06v2.4c-.86.14-1.65.21-2.37.21-1.4,0-2.39-.36-2.98-1.07-.59-.71-.89-1.81-.89-3.28v-6.59h-1.85v-2.27h1.85v-2.95Z"/>
  </g>
  <polygon class="st0" points="55.66 36.94 33.34 24.06 33.34 49.83 55.66 36.94"/>
</svg>